<svg width="28" height="28" viewBox="0 0 28 28" fill="none" xmlns="http://www.w3.org/2000/svg">
<g clip-path="url(#clip0_245_282)">
<path d="M24.1699 3.831C23.9325 3.59361 23.5465 3.59361 23.3091 3.831L14.7874 12.3527C14.55 12.5901 14.55 12.976 14.7874 13.2134C14.9067 13.3315 15.0625 13.3912 15.2184 13.3912C15.3742 13.3912 15.53 13.3316 15.6481 13.2134L24.1699 4.69172C24.4072 4.45432 24.4072 4.06839 24.1699 3.831Z" fill="#9EA0A5"/>
<path d="M23.7415 3.65217C23.4055 3.65217 23.1328 3.92488 23.1328 4.26088V11.5652C23.1328 11.9012 23.4055 12.1739 23.7415 12.1739C24.0775 12.1739 24.3502 11.9012 24.3502 11.5652V4.26088C24.3502 3.92488 24.0775 3.65217 23.7415 3.65217Z" fill="#9EA0A5"/>
<path d="M23.7412 3.65217H16.4368C16.1008 3.65217 15.8281 3.92488 15.8281 4.26088C15.8281 4.59688 16.1008 4.86954 16.4368 4.86954H23.7412C24.0772 4.86954 24.3499 4.59682 24.3499 4.26082C24.3499 3.92483 24.0772 3.65217 23.7412 3.65217Z" fill="#9EA0A5"/>
<path d="M13.2128 14.7874C12.9754 14.55 12.5895 14.55 12.3521 14.7874L3.83039 23.3091C3.593 23.5465 3.593 23.9324 3.83039 24.1698C3.94971 24.2879 4.1055 24.3476 4.26134 24.3476C4.41719 24.3476 4.57298 24.288 4.6911 24.1698L13.2128 15.6481C13.4502 15.4107 13.4502 15.0248 13.2128 14.7874Z" fill="#9EA0A5"/>
<path d="M4.26106 15.826C3.92506 15.826 3.65234 16.0987 3.65234 16.4347V23.7391C3.65234 24.0751 3.92506 24.3478 4.26106 24.3478C4.59706 24.3478 4.86971 24.0751 4.86971 23.7391V16.4347C4.86971 16.0987 4.59706 15.826 4.26106 15.826Z" fill="#9EA0A5"/>
<path d="M11.5654 23.1303H4.26106C3.92506 23.1303 3.65234 23.403 3.65234 23.739C3.65234 24.075 3.92506 24.3477 4.26106 24.3477H11.5654C11.9014 24.3477 12.1741 24.075 12.1741 23.739C12.1741 23.403 11.9014 23.1303 11.5654 23.1303Z" fill="#9EA0A5"/>
<path d="M26.1739 0H1.82609C0.819285 0 0 0.819285 0 1.82609V26.1739C0 27.1807 0.819285 28 1.82609 28H26.1739C27.1807 28 28 27.1807 28 26.1739V1.82609C28 0.819285 27.1807 0 26.1739 0ZM26.7826 26.1739C26.7826 26.5087 26.5087 26.7826 26.1739 26.7826H1.82609C1.49128 26.7826 1.21737 26.5087 1.21737 26.1739V1.82609C1.21737 1.49128 1.49128 1.21737 1.82609 1.21737H26.1739C26.5087 1.21737 26.7826 1.49128 26.7826 1.82609V26.1739H26.7826Z" fill="#9EA0A5"/>
</g>
<defs>
<clipPath id="clip0_245_282">
<rect width="28" height="28" fill="white"/>
</clipPath>
</defs>
</svg>
