<svg width="28" height="28" viewBox="0 0 28 28" fill="none" xmlns="http://www.w3.org/2000/svg">
<g clip-path="url(#clip0_245_306)">
<path d="M25.375 0H2.625C1.17523 0 0 1.17523 0 2.625V25.375C0 26.8248 1.17523 28 2.625 28H25.375C26.8248 28 28 26.8248 28 25.375V2.625C28 1.17523 26.8248 0 25.375 0ZM26.25 25.375C26.25 25.8583 25.8583 26.25 25.375 26.25H2.625C2.14173 26.25 1.75 25.8583 1.75 25.375V2.625C1.75 2.14173 2.14173 1.75 2.625 1.75H25.375C25.8583 1.75 26.25 2.14173 26.25 2.625V25.375Z" fill="#9EA0A5"/>
<path d="M18.9957 15.1285C18.6544 14.7893 18.1032 14.7893 17.7619 15.1285L15.7494 17.141L11.9957 13.3873C11.6544 13.048 11.1032 13.048 10.7619 13.3873L4.63693 19.5123C4.29863 19.8574 4.30405 20.4113 4.64912 20.7496C4.80963 20.907 5.02461 20.9966 5.24943 20.9998H22.7494C23.2327 21.0026 23.6267 20.6131 23.6295 20.1299C23.6309 19.8948 23.5376 19.6691 23.3707 19.5035L18.9957 15.1285Z" fill="#9EA0A5"/>
<path d="M16.625 12.25C18.0747 12.25 19.25 11.0747 19.25 9.625C19.25 8.17525 18.0747 7 16.625 7C15.1753 7 14 8.17525 14 9.625C14 11.0747 15.1753 12.25 16.625 12.25Z" fill="#9EA0A5"/>
</g>
<defs>
<clipPath id="clip0_245_306">
<rect width="28" height="28" fill="white"/>
</clipPath>
</defs>
</svg>
